# https://github.com/mikedh/trimesh
v 0.50500000 -2.50336949 1.12300347
v 0.50500000 -2.50336949 1.12300347
v 0.25250000 -2.50336949 1.56034630
v 0.25250000 -2.50336949 1.56034630
v -0.25250000 -2.50336949 1.56034630
v -0.25250000 -2.50336949 1.56034630
v -0.50500000 -2.50336949 1.12300347
v -0.50500000 -2.50336949 1.12300347
v -0.25250000 -2.50336949 0.68566065
v -0.25250000 -2.50336949 0.68566065
v 0.25250000 -2.50336949 0.68566065
v 0.25250000 -2.50336949 0.68566065
v 0.50500000 -2.10336949 1.12300347
v 0.50500000 -2.10336949 1.12300347
v 0.50500000 -2.10336949 1.12300347
v 0.25250000 -2.10336949 1.56034630
v 0.25250000 -2.10336949 1.56034630
v -0.25250000 -2.10336949 1.56034630
v -0.25250000 -2.10336949 1.56034630
v -0.50500000 -2.10336949 1.12300347
v -0.50500000 -2.10336949 1.12300347
v -0.25250000 -2.10336949 0.68566065
v -0.25250000 -2.10336949 0.68566065
v 0.25250000 -2.10336949 0.68566065
v 0.25250000 -2.10336949 0.68566065
v 0.12500000 -2.50336949 1.33950983
v -0.12500000 -2.10336949 1.33950983
v -0.12500000 -2.50336949 0.90649713
v 0.12500000 -2.10336949 0.90649713
v 0.24620194 -2.50336949 1.07959143
v 0.21650635 -2.50336949 0.99800348
v 0.04341205 -2.50336949 0.87680154
v 0.23492315 -2.50336949 1.03749844
v 0.25000000 -2.50336949 1.12300347
v 0.08550503 -2.50336949 0.88808032
v -0.04341205 -2.50336949 0.87680154
v 0.00000000 -2.50336949 0.87300347
v 0.16069690 -2.50336949 0.93149236
v 0.12500000 -2.50336949 0.90649713
v 0.16069690 -2.50336949 1.31451458
v 0.21650635 -2.50336949 1.24800347
v 0.19151111 -2.50336949 1.28370038
v -0.08550503 -2.50336949 0.88808032
v 0.24620194 -2.50336949 1.16641552
v -0.16069690 -2.50336949 0.93149236
v -0.19151111 -2.50336949 0.96230658
v -0.21650635 -2.50336949 0.99800348
v -0.23492315 -2.50336949 1.03749844
v 0.19151111 -2.50336949 0.96230658
v -0.25000000 -2.50336949 1.12300347
v -0.24620194 -2.50336949 1.16641552
v -0.23492315 -2.50336949 1.20850851
v -0.21650635 -2.50336949 1.24800347
v -0.19151111 -2.50336949 1.28370038
v -0.16069690 -2.50336949 1.31451458
v -0.12500000 -2.50336949 1.33950983
v -0.08550503 -2.50336949 1.35792663
v -0.04341205 -2.50336949 1.36920542
v 0.00000000 -2.50336949 1.37300347
v 0.04341205 -2.50336949 1.36920542
v 0.08550503 -2.50336949 1.35792663
v 0.23492315 -2.50336949 1.20850851
v 0.25000000 -2.10336949 1.12300347
v 0.24620194 -2.10336949 1.07959143
v 0.23492315 -2.10336949 1.03749844
v 0.21650635 -2.10336949 0.99800348
v 0.19151111 -2.10336949 0.96230658
v 0.16069690 -2.10336949 0.93149236
v -0.24620194 -2.50336949 1.07959143
v -0.08550503 -2.10336949 1.35792663
v -0.04341205 -2.10336949 1.36920542
v 0.00000000 -2.10336949 1.37300347
v 0.04341205 -2.10336949 1.36920542
v 0.08550503 -2.10336949 1.35792663
v 0.12500000 -2.10336949 1.33950983
v 0.16069690 -2.10336949 1.31451458
v 0.19151111 -2.10336949 1.28370038
v 0.21650635 -2.10336949 1.24800347
v 0.23492315 -2.10336949 1.20850851
v 0.24620194 -2.10336949 1.16641552
v 0.08550503 -2.10336949 0.88808032
v 0.04341205 -2.10336949 0.87680154
v 0.00000000 -2.10336949 0.87300347
v -0.04341205 -2.10336949 0.87680154
v -0.08550503 -2.10336949 0.88808032
v -0.12500000 -2.10336949 0.90649713
v -0.16069690 -2.10336949 0.93149236
v -0.19151111 -2.10336949 0.96230658
v -0.21650635 -2.10336949 0.99800348
v -0.23492315 -2.10336949 1.03749844
v -0.24620194 -2.10336949 1.07959143
v -0.25000000 -2.10336949 1.12300347
v -0.24620194 -2.10336949 1.16641552
v -0.23492315 -2.10336949 1.20850851
v -0.21650635 -2.10336949 1.24800347
v -0.19151111 -2.10336949 1.28370038
v -0.16069690 -2.10336949 1.31451458
v 0.25000000 -2.50336949 1.12300347
v 0.25000000 -2.50336949 1.12300347
v 0.24620194 -2.50336949 1.07959143
v 0.23492315 -2.50336949 1.03749844
v 0.21650635 -2.50336949 0.99800348
v 0.19151111 -2.50336949 0.96230658
v 0.16069690 -2.50336949 0.93149236
v 0.12500000 -2.50336949 0.90649713
v 0.08550503 -2.50336949 0.88808032
v 0.04341205 -2.50336949 0.87680154
v 0.00000000 -2.50336949 0.87300347
v -0.04341205 -2.50336949 0.87680154
v -0.08550503 -2.50336949 0.88808032
v -0.12500000 -2.50336949 0.90649713
v -0.08550503 -2.50336949 1.35792663
v 0.12500000 -2.50336949 1.33950983
v 0.16069690 -2.50336949 1.31451458
v 0.19151111 -2.50336949 1.28370038
v 0.21650635 -2.50336949 1.24800347
v 0.23492315 -2.50336949 1.20850851
v 0.24620194 -2.50336949 1.16641552
v -0.16069690 -2.50336949 0.93149236
v -0.19151111 -2.50336949 0.96230658
v -0.21650635 -2.50336949 0.99800348
v -0.23492315 -2.50336949 1.03749844
v -0.24620194 -2.50336949 1.07959143
v -0.25000000 -2.50336949 1.12300347
v -0.24620194 -2.50336949 1.16641552
v -0.23492315 -2.50336949 1.20850851
v -0.21650635 -2.50336949 1.24800347
v -0.19151111 -2.50336949 1.28370038
v -0.16069690 -2.50336949 1.31451458
v -0.12500000 -2.50336949 1.33950983
v 0.19151111 -2.10336949 1.28370038
v -0.04341205 -2.50336949 1.36920542
v 0.00000000 -2.50336949 1.37300347
v 0.04341205 -2.50336949 1.36920542
v 0.08550503 -2.50336949 1.35792663
v 0.08550503 -2.10336949 0.88808032
v 0.25000000 -2.10336949 1.12300347
v 0.25000000 -2.10336949 1.12300347
v 0.24620194 -2.10336949 1.07959143
v 0.23492315 -2.10336949 1.03749844
v 0.21650635 -2.10336949 0.99800348
v 0.19151111 -2.10336949 0.96230658
v 0.16069690 -2.10336949 0.93149236
v 0.12500000 -2.10336949 0.90649713
v -0.12500000 -2.10336949 1.33950983
v -0.08550503 -2.10336949 1.35792663
v -0.04341205 -2.10336949 1.36920542
v 0.00000000 -2.10336949 1.37300347
v 0.04341205 -2.10336949 1.36920542
v 0.08550503 -2.10336949 1.35792663
v 0.12500000 -2.10336949 1.33950983
v 0.16069690 -2.10336949 1.31451458
v -0.21650635 -2.10336949 1.24800347
v 0.21650635 -2.10336949 1.24800347
v 0.23492315 -2.10336949 1.20850851
v 0.24620194 -2.10336949 1.16641552
v -0.12500000 -2.10336949 0.90649713
v -0.16069690 -2.10336949 0.93149236
v 0.04341205 -2.10336949 0.87680154
v 0.00000000 -2.10336949 0.87300347
v -0.04341205 -2.10336949 0.87680154
v -0.08550503 -2.10336949 0.88808032
v -0.24620194 -2.10336949 1.16641552
v -0.23492315 -2.10336949 1.20850851
v -0.19151111 -2.10336949 0.96230658
v -0.21650635 -2.10336949 0.99800348
v -0.23492315 -2.10336949 1.03749844
v -0.24620194 -2.10336949 1.07959143
v -0.25000000 -2.10336949 1.12300347
v -0.19151111 -2.10336949 1.28370038
v -0.16069690 -2.10336949 1.31451458
f 15 17 4
f 4 1 15
f 17 19 6
f 6 4 17
f 19 21 8
f 8 6 19
f 21 22 10
f 10 8 21
f 22 24 11
f 11 10 22
f 24 14 2
f 2 11 24
f 3 26 40
f 43 28 9
f 3 40 42
f 36 43 9
f 37 36 9
f 3 42 41
f 3 41 62
f 32 37 9
f 9 12 32
f 3 62 44
f 35 32 12
f 3 44 34
f 39 35 12
f 12 3 34
f 38 39 12
f 12 34 30
f 49 38 12
f 12 30 33
f 31 49 12
f 33 31 12
f 1 3 12
f 9 28 45
f 61 26 3
f 9 45 46
f 60 61 3
f 59 60 3
f 7 9 46
f 46 47 7
f 58 59 3
f 7 47 48
f 57 58 3
f 7 48 69
f 56 57 3
f 7 69 50
f 56 3 7
f 7 50 51
f 55 56 7
f 7 51 52
f 54 55 7
f 7 52 53
f 7 53 54
f 3 5 7
f 25 16 13
f 70 27 18
f 25 29 68
f 25 68 67
f 71 70 18
f 16 72 71
f 71 18 16
f 25 67 66
f 25 66 65
f 73 72 16
f 25 65 64
f 74 73 16
f 25 64 63
f 75 74 16
f 16 25 63
f 76 75 16
f 16 63 80
f 77 76 16
f 16 80 79
f 78 77 16
f 16 79 78
f 23 20 18
f 18 27 97
f 81 29 25
f 82 81 25
f 18 97 96
f 18 96 95
f 83 82 25
f 25 23 83
f 18 95 94
f 84 83 23
f 18 94 93
f 85 84 23
f 18 93 92
f 86 85 23
f 23 18 92
f 87 86 23
f 23 92 91
f 88 87 23
f 23 91 90
f 89 88 23
f 90 89 23
f 139 100 98
f 98 138 139
f 140 101 100
f 100 139 140
f 141 102 101
f 101 140 141
f 142 103 102
f 102 141 142
f 143 104 103
f 103 142 143
f 144 105 104
f 104 143 144
f 136 106 105
f 105 144 136
f 159 107 106
f 106 136 159
f 160 108 107
f 107 159 160
f 161 109 108
f 108 160 161
f 162 110 109
f 109 161 162
f 157 111 110
f 110 162 157
f 158 119 111
f 111 157 158
f 165 120 119
f 119 158 165
f 166 121 120
f 120 165 166
f 167 122 121
f 121 166 167
f 168 123 122
f 122 167 168
f 169 124 123
f 123 168 169
f 163 125 124
f 124 169 163
f 164 126 125
f 125 163 164
f 153 127 126
f 126 164 153
f 170 128 127
f 127 153 170
f 171 129 128
f 128 170 171
f 129 171 145
f 145 130 129
f 130 145 146
f 146 112 130
f 112 146 147
f 147 132 112
f 132 147 148
f 148 133 132
f 133 148 149
f 149 134 133
f 134 149 150
f 150 135 134
f 135 150 151
f 151 113 135
f 113 151 152
f 152 114 113
f 131 115 114
f 114 152 131
f 154 116 115
f 115 131 154
f 155 117 116
f 116 154 155
f 156 118 117
f 117 155 156
f 137 99 118
f 118 156 137

